<svg width="160" height="160" viewBox="0 0 160 160" fill="none" xmlns="http://www.w3.org/2000/svg">
<g clip-path="url(#clip0_2_190)">
<path d="M80 160C124.171 160 160 124.171 160 80C160 35.8286 124.171 0 80 0C35.8286 0 0 35.8286 0 80C0 124.171 35.8286 160 80 160Z" fill="#EAE5FF"/>
<path d="M126.971 84.0571V83.9429C126.971 83.9429 126.971 83.8857 126.971 83.8286C127.029 83.5429 127.143 83.2571 127.2 83.0286C127.2 83.0286 127.2 82.9143 127.2 82.8571C127.2 82.8 127.2 82.6857 127.2 82.6286C127.2 82.6286 127.2 82.5143 127.2 82.4571C127.2 82.4571 127.2 82.4 127.2 82.3429C127.2 82.2286 127.257 82.1143 127.257 82C127.257 81.8286 127.314 81.6 127.371 81.4286C127.371 81.4286 127.371 81.3143 127.371 81.2571C127.371 81.2 127.371 81.0857 127.371 81.0286C127.371 80.8 127.429 80.6286 127.429 80.4C127.429 80.4 127.429 80.3429 127.429 80.2857C127.429 80.2857 127.429 80.1143 127.429 80C127.429 79.8857 127.429 79.8286 127.429 79.7143C127.429 79.6571 127.429 79.5429 127.429 79.4857C127.429 79.4857 127.429 79.4857 127.429 79.4286C127.429 79.4286 127.429 79.3143 127.429 79.2571L127.886 143.771C127.314 144.171 126.743 144.571 126.171 144.971C126 145.086 125.829 145.257 125.6 145.371C124.971 145.829 124.343 146.229 123.771 146.629C116.686 151.371 108.743 154.971 100.286 157.257C95.3714 158.571 90.2857 159.429 85.0286 159.771C84.8572 159.771 84.6286 159.771 84.4572 159.771C84.0572 159.771 83.6 159.771 83.2 159.829C83.1429 159.829 83.0286 159.829 82.9715 159.829C82.9715 159.829 82.9143 159.829 82.8572 159.829C82.4 159.829 82 159.829 81.5429 159.829C81.0857 159.829 80.6286 159.829 80.1714 159.829V120.4C83.8857 118.914 87.3715 117.429 90.5143 115.943C91.3143 115.543 92.0572 115.2 92.8572 114.8C93.2572 114.629 93.6572 114.4 94 114.229C94.8 113.829 95.6 113.429 96.4 112.971C96.6857 112.8 96.9715 112.686 97.2572 112.514C98.2286 112 99.1429 111.486 100.057 110.971C100.114 110.971 100.229 110.857 100.286 110.857C102.286 109.714 104.171 108.571 105.886 107.429C106.057 107.314 106.229 107.2 106.343 107.086C107.029 106.629 107.657 106.171 108.286 105.714C108.514 105.543 108.686 105.429 108.914 105.257C109.486 104.857 110 104.457 110.571 104.057C110.8 103.886 110.971 103.714 111.2 103.543C111.714 103.143 112.171 102.743 112.629 102.4C112.857 102.229 113.029 102.057 113.257 101.886C113.714 101.486 114.171 101.143 114.571 100.743C114.743 100.571 114.914 100.4 115.086 100.229C115.486 99.8286 115.886 99.4857 116.286 99.0857C116.457 98.9143 116.571 98.8 116.743 98.6286C117.143 98.2286 117.543 97.8286 117.886 97.4286C118 97.3143 118.114 97.2 118.229 97.0286C118.629 96.5714 119.029 96.1714 119.371 95.7714C119.429 95.7143 119.543 95.6 119.6 95.5429C119.771 95.3143 120 95.0857 120.171 94.8571C120.229 94.7429 120.343 94.6857 120.4 94.5714C120.514 94.4571 120.629 94.3429 120.686 94.1714C120.8 94.0571 120.857 93.9429 120.971 93.8286C121.029 93.7714 121.086 93.6571 121.143 93.6C121.829 92.6857 122.457 91.8286 123.029 90.9143C123.029 90.9143 123.029 90.8 123.086 90.7429C123.314 90.4 123.543 90.0571 123.714 89.7143C123.714 89.6571 123.771 89.6 123.829 89.5429C123.943 89.3714 124 89.2571 124.057 89.0857C124.057 89.0286 124.114 88.9714 124.171 88.8571C124.171 88.8571 124.171 88.8 124.229 88.7429C124.286 88.6286 124.343 88.5143 124.4 88.4C124.4 88.2857 124.514 88.2286 124.514 88.1143C124.686 87.7714 124.857 87.4857 124.971 87.1429C124.971 87.1429 124.971 87.0857 124.971 87.0286C124.971 87.0286 124.971 86.9143 125.029 86.9143C125.143 86.6286 125.314 86.2857 125.429 86C125.429 85.8857 125.486 85.8286 125.543 85.7143C125.6 85.5429 125.714 85.3714 125.771 85.2C125.771 85.0857 125.829 84.9714 125.886 84.9143C125.886 84.8 125.943 84.7429 126 84.6286C126.114 84.3429 126.171 84.0571 126.286 83.8286L126.971 84.0571Z" fill="#7447CC"/>
<path d="M126.571 85.1429C126.571 85.1429 126.514 85.3714 126.457 85.4286C126.457 85.3143 126.514 85.2 126.571 85.1429Z" fill="#5A2DB2"/>
<path d="M126.343 85.7143C126.343 85.7143 126.4 85.5428 126.457 85.4286C126.4 85.6 126.343 85.7714 126.229 85.9428C126.229 85.8286 126.286 85.7714 126.343 85.6571V85.7143Z" fill="#5A2DB2"/>
<path d="M100.343 97.1429C95.5428 102.971 83.6 114.686 70.5143 118.914V159.429C69.1428 159.257 67.7714 159.086 66.4 158.857L66.2857 117.486C82.6857 111.714 94.4 103.257 100.286 97.0286V97.1429H100.343Z" fill="#CCBFFF"/>
<path d="M40.9714 39.1429C40.9714 45.3714 57.2571 53.7714 58.3428 54.3429C58.3428 54.3429 85.6571 67.3714 88.1714 76.3428C88.1714 76.3428 91.5428 81.3714 83.7143 90.1143C80.9143 93.2571 77.4286 95.8286 73.6571 97.8286C66.8 101.429 58.5143 105.886 48.2286 109.257L45.0286 110.286C45.0286 110.286 44.6286 110.4 44.4571 110.457V151.657C44.4571 151.657 44.4571 151.657 44.5143 151.657C44.5143 151.657 44.5143 151.657 44.4571 151.657C43.1428 151.029 41.8286 150.343 40.5714 149.6C40.5143 149.6 40.4571 149.486 40.4 149.486L40.2857 108.914C42.2857 108.229 44.2286 107.486 46.1143 106.8C40.7428 102.743 40.8571 100.686 40.8571 100.686V39.1429H40.9714Z" fill="#7447CC"/>
<path d="M66.4 158.8C67.7714 159.029 69.1429 159.257 70.5143 159.371V118.857C83.6 114.629 95.5429 102.914 100.343 97.0857L100.229 96.9714C94.3429 103.2 82.5714 111.657 66.2286 117.429L66.4 158.8ZM127.771 77.7143C127.771 77.7143 127.886 78.2857 127.771 79.3714C127.771 79.3714 127.771 79.4286 127.771 79.4857C127.771 79.5429 127.771 79.6571 127.771 79.7143C127.771 79.8286 127.771 79.8857 127.771 80C127.771 80.0571 127.771 80.1714 127.771 80.2286V80.3429C127.771 80.5143 127.771 80.7429 127.714 80.9714C127.714 81.0286 127.714 81.1429 127.714 81.2C127.714 81.2 127.714 81.3143 127.714 81.3714C127.714 81.3714 127.657 81.7714 127.6 81.9429C127.6 82.0571 127.6 82.1714 127.543 82.2857C127.543 82.2857 127.543 82.3429 127.543 82.4C127.543 82.4 127.543 82.5143 127.543 82.5714C127.543 82.6286 127.543 82.7429 127.543 82.8C127.543 82.8 127.543 82.9143 127.543 82.9714C127.486 83.2571 127.371 83.4857 127.314 83.7714C127.314 83.7714 127.314 83.8286 127.314 83.8857V84C127.257 84.2857 127.143 84.5143 127.029 84.8C127.029 84.9143 126.971 84.9714 126.914 85.0857C126.914 85.2 126.857 85.3143 126.8 85.3714C126.8 85.4857 126.743 85.5429 126.686 85.6571C126.686 85.7714 126.629 85.8286 126.571 85.9429C126.571 86.0571 126.514 86.1143 126.457 86.2286C126.343 86.5143 126.229 86.8 126.057 87.1429C126.057 87.1429 126.057 87.2571 126 87.2571C126 87.2571 126 87.3143 126 87.3714C125.829 87.7143 125.714 88 125.543 88.3429C125.543 88.4571 125.429 88.5143 125.429 88.6286C125.371 88.7429 125.314 88.8571 125.257 88.9714C125.257 88.9714 125.257 89.0286 125.2 89.0857C125.2 89.1429 125.143 89.2 125.086 89.3143C125.029 89.4857 124.914 89.6 124.857 89.7714C124.857 89.8286 124.8 89.8857 124.743 89.9429C124.514 90.2857 124.343 90.6286 124.114 90.9714C124.114 90.9714 124.114 91.0857 124.057 91.0857C123.486 91.9429 122.857 92.8571 122.171 93.7714C122.114 93.8286 122.057 93.9429 122 94C121.886 94.1143 121.829 94.2286 121.714 94.3429C121.6 94.4571 121.486 94.6286 121.429 94.7429C121.371 94.8571 121.257 94.9143 121.2 95.0286C121.029 95.2571 120.8 95.4857 120.629 95.7143C120.571 95.7714 120.457 95.8857 120.4 95.9429C120.057 96.3429 119.657 96.8 119.257 97.2C119.143 97.3143 119.029 97.4286 118.914 97.6C118.514 98 118.171 98.4 117.771 98.8C117.6 98.9714 117.486 99.0857 117.314 99.2571C116.914 99.6571 116.514 100 116.114 100.4C115.943 100.571 115.771 100.743 115.6 100.914C115.2 101.314 114.743 101.657 114.286 102.057C114.057 102.229 113.886 102.4 113.657 102.571C113.2 102.971 112.686 103.314 112.229 103.714C112 103.886 111.829 104.057 111.6 104.229C111.086 104.629 110.514 105.029 109.943 105.429C109.714 105.6 109.543 105.714 109.314 105.886C108.686 106.343 108 106.8 107.371 107.257C107.2 107.371 107.086 107.486 106.914 107.6C105.2 108.743 103.314 109.886 101.314 111.029C101.257 111.029 101.143 111.143 101.086 111.143C100.171 111.657 99.2572 112.171 98.2857 112.686C98 112.857 97.7143 112.971 97.4286 113.143C96.6286 113.543 95.8286 113.943 95.0286 114.4C94.6286 114.571 94.2286 114.8 93.8857 114.971C93.1429 115.371 92.3429 115.714 91.5429 116.114C88.3429 117.6 84.9143 119.086 81.1429 120.571V160C81.1429 160 81.4857 160 81.6 160C81.7143 160 81.8286 160 81.9429 160C82.2286 160 82.4571 160 82.7429 160C82.3429 160 81.9429 160 81.5429 160C81.2572 160 80.9143 160 80.6286 160C80.1714 160 79.7714 160 79.3143 160C79.1429 160 78.9714 160 78.8 160C78.2857 160 77.7714 160 77.2572 160C76.8572 160 76.4572 160 76.0572 159.943C76 159.943 75.9429 159.943 75.8857 159.943C74.8572 159.886 73.8857 159.829 72.9143 159.714C67.6572 159.2 62.6286 158.171 57.7143 156.743V114.914C70.6286 110.743 82.9714 102 87.2 95.8286V95.7143C82.7429 101.943 69.5429 107.829 53.4286 113.486L53.5429 155.371C50.6857 154.343 47.9429 153.143 45.2572 151.829C45.2572 151.829 45.2571 151.829 45.2 151.829V110.629C45.2 110.629 45.6 110.514 45.7714 110.457L48.9714 109.429C59.2 106.057 67.5429 101.6 74.4 98C78.1714 96 81.6 93.4857 84.4571 90.2857C92.2857 81.4857 88.9143 76.5143 88.9143 76.5143C86.4 67.5429 59.0857 54.5143 59.0857 54.5143C58 53.9429 41.7143 45.5429 41.7143 39.3143C41.7143 37.9429 42.5143 36.7429 44.3429 35.6571C44.3429 35.6571 52.6857 29.2 94.7429 49.9429C94.7429 49.9429 127.6 64.6857 128.514 77.9429L127.771 77.7143Z" fill="white"/>
<path d="M86.5143 95.7143C82.2857 101.886 69.8857 110.629 57.0286 114.8V156.629C56.6857 156.514 56.2857 156.4 55.9428 156.286C55.5428 156.171 55.0857 156 54.6857 155.886C54.6286 155.886 54.5714 155.886 54.5143 155.829C54 155.657 53.4286 155.486 52.9143 155.257L52.8 113.371C68.9143 107.657 82.1143 101.829 86.4571 95.6L86.5714 95.7143H86.5143Z" fill="#CCBFFF"/>
<path d="M57.0286 156.629C61.8857 158.114 66.9714 159.086 72.2286 159.6C62.3428 158.629 53.0286 155.943 44.5714 151.714C44.5714 151.714 44.5714 151.714 44.6286 151.714C47.3143 153.029 50.0571 154.229 52.9143 155.2C53.4286 155.429 54 155.6 54.5143 155.771C54.5714 155.771 54.6286 155.771 54.6857 155.829C55.0857 155.943 55.5428 156.114 55.9428 156.229C56.2857 156.343 56.6857 156.457 57.0286 156.571V156.629Z" fill="#EAE5FF"/>
</g>
<defs>
<clipPath id="clip0_2_190">
<rect width="160" height="160" fill="white"/>
</clipPath>
</defs>
</svg>
