<?xml version="1.0" encoding="UTF-8" standalone="no"?>
<svg
   color="black"
   width="28px"
   fill="none"
   viewBox="0 0 28 28"
   class="sc-ipEyDJ jDYzxv"
   version="1.1"
   id="svg1"
   sodipodi:docname="locationIcon2.svg"
   inkscape:version="1.3.2 (091e20e, 2023-11-25)"
   xmlns:inkscape="http://www.inkscape.org/namespaces/inkscape"
   xmlns:sodipodi="http://sodipodi.sourceforge.net/DTD/sodipodi-0.dtd"
   xmlns="http://www.w3.org/2000/svg"
   xmlns:svg="http://www.w3.org/2000/svg">
  <defs
     id="defs1">
    <inkscape:path-effect
       effect="fill_between_many"
       method="originald"
       linkedpaths="#path1,0,1|"
       id="path-effect2" />
  </defs>
  <sodipodi:namedview
     id="namedview1"
     pagecolor="#ffffff"
     bordercolor="#000000"
     borderopacity="0.25"
     inkscape:showpageshadow="2"
     inkscape:pageopacity="0.0"
     inkscape:pagecheckerboard="0"
     inkscape:deskcolor="#d1d1d1"
     showgrid="false"
     inkscape:zoom="42.240057"
     inkscape:cx="13.364092"
     inkscape:cy="13.517974"
     inkscape:window-width="1472"
     inkscape:window-height="809"
     inkscape:window-x="0"
     inkscape:window-y="37"
     inkscape:window-maximized="1"
     inkscape:current-layer="svg1" />
  <path
     inkscape:original-d="M 0,0"
     inkscape:path-effect="#path-effect2"
     d="m 17.85,9.183 a 5.4447222,5.4447222 0 1 0 -7.7,7.7 l 3.3,3.3 a 0.777,0.777 0 0 0 1.1,0 l 3.3,-3.3 a 5.444,5.444 0 0 0 0,-7.7 z"
     id="path2"
     style="fill:#ffffff;fill-opacity:1" />
  <path
     fill-rule="evenodd"
     clip-rule="evenodd"
     d="M17.85 9.183a5.444 5.444 0 1 0-7.7 7.7l3.3 3.3a.777.777 0 0 0 1.1 0l3.3-3.3a5.444 5.444 0 0 0 0-7.7Zm-8.8-1.1a7 7 0 1 1 9.9 9.9l-3.3 3.3a2.332 2.332 0 0 1-3.3 0l-3.3-3.3a7 7 0 0 1 0-9.9ZM14 11.478a1.556 1.556 0 1 0 0 3.11 1.556 1.556 0 0 0 0-3.11Zm-3.111 1.555a3.111 3.111 0 1 1 6.222 0 3.111 3.111 0 0 1-6.222 0Z"
     id="path1"
     style="fill:#000000;fill-opacity:1" />
</svg>
