<svg xmlns="http://www.w3.org/2000/svg" width="25" height="21" viewBox="0 0 25 21">
    <g fill="#FFF" fill-rule="evenodd">
        <path d="M6.151 20.486c9.145-2.173 18.745-5.6 18.833-10.42 0 0 1.244-6.343-18.3-9.779 0 0-3.591-.673-4.308.04-.665.658 2.1 1.545 2.1 1.545C9.719 3.74 15.54 6.636 15.69 10.308c0 0 1.28 4.584-11.134 8.985 0 0-2.58.833-2.24 1.513.252.503 2.829-.107 3.835-.32"/>
        <path d="M3.799 18.233c5.418-1.828 10.565-4.447 10.581-7.815 0 0 .829-4.039-10.457-7.935-.35-.104-1.802-.523-2.487.106-.57.521 1.09 1.493 1.09 1.493 2.172 1.533 4.26 3.64 4.187 6.076-.07 2.191-2.025 4.164-4.705 5.82 0 0-2.525 1.437-1.912 2.273.706.973 2.702.274 3.703-.018"/>
    </g>
</svg>
